<?xml version="1.0" encoding="UTF-8" standalone="no"?>
<svg
   xmlns:dc="http://purl.org/dc/elements/1.1/"
   xmlns:cc="http://creativecommons.org/ns#"
   xmlns:rdf="http://www.w3.org/1999/02/22-rdf-syntax-ns#"
   xmlns:svg="http://www.w3.org/2000/svg"
   xmlns="http://www.w3.org/2000/svg"
   viewBox="0 0 66.666664 106.66667"
   height="106.66667"
   width="66.666664"
   xml:space="preserve"
   id="svg2"
   version="1.1"><metadata
     id="metadata8"><rdf:RDF><cc:Work
         rdf:about=""><dc:format>image/svg+xml</dc:format><dc:type
           rdf:resource="http://purl.org/dc/dcmitype/StillImage" /></cc:Work></rdf:RDF></metadata><defs
     id="defs6"><clipPath
       id="clipPath18"
       clipPathUnits="userSpaceOnUse"><path
         id="path16"
         d="M 0,80 H 50 V 0 H 0 Z" /></clipPath></defs><g
     transform="matrix(1.3333333,0,0,-1.3333333,0,106.66667)"
     id="g10"><g
       id="g12"><g
         clip-path="url(#clipPath18)"
         id="g14"><g
           transform="translate(25,41.1997)"
           id="g20"><path
             id="path22"
             style="fill:#f0d8d9;fill-opacity:1;fill-rule:nonzero;stroke:none"
             d="M 0,0 C -7.457,0 -13.5,6.044 -13.5,13.5 -13.5,20.956 -7.457,27 0,27 7.455,27 13.5,20.956 13.5,13.5 13.5,6.044 7.455,0 0,0 m 0,38.8 c -13.809,0 -25,-11.194 -25,-25 0,-23.869 25,-55 25,-55 0,0 25,31.131 25,55 0,13.806 -11.193,25 -25,25" /></g></g></g></g></svg>