<?xml version="1.0" encoding="UTF-8" standalone="no"?>
<svg
   xmlns:dc="http://purl.org/dc/elements/1.1/"
   xmlns:cc="http://creativecommons.org/ns#"
   xmlns:rdf="http://www.w3.org/1999/02/22-rdf-syntax-ns#"
   xmlns:svg="http://www.w3.org/2000/svg"
   xmlns="http://www.w3.org/2000/svg"
   viewBox="0 0 120 77.333336"
   height="77.333336"
   width="120"
   xml:space="preserve"
   id="svg2"
   version="1.1"><metadata
     id="metadata8"><rdf:RDF><cc:Work
         rdf:about=""><dc:format>image/svg+xml</dc:format><dc:type
           rdf:resource="http://purl.org/dc/dcmitype/StillImage" /></cc:Work></rdf:RDF></metadata><defs
     id="defs6"><clipPath
       id="clipPath18"
       clipPathUnits="userSpaceOnUse"><path
         id="path16"
         d="M 0,58 H 90 V 0 H 0 Z" /></clipPath></defs><g
     transform="matrix(1.3333333,0,0,-1.3333333,0,77.333333)"
     id="g10"><g
       id="g12"><g
         clip-path="url(#clipPath18)"
         id="g14"><g
           transform="translate(88.0645,42.5718)"
           id="g20"><path
             id="path22"
             style="fill:#f0d8d9;fill-opacity:1;fill-rule:nonzero;stroke:none"
             d="m 0,0 c -2.773,-1.447 -36.835,-19.259 -38.533,-20.144 -1.699,-0.887 -2.889,-1.002 -4.531,-1.002 -1.643,0 -2.832,0.115 -4.532,1.002 -1.698,0.885 -35.758,18.697 -38.533,20.144 -1.952,1.018 -1.935,-0.176 -1.935,-1.098 v -36.679 c 0,-2.096 2.792,-4.795 4.959,-4.795 h 80.082 c 2.167,0 4.959,2.699 4.959,4.795 V -1.098 C 1.936,-0.176 1.954,1.018 0,0 m -85.095,10 c 2.441,-1.312 36.241,-19.468 37.499,-20.144 1.259,-0.676 2.889,-1.002 4.532,-1.002 1.642,0 3.272,0.326 4.531,1.002 1.258,0.676 35.057,18.832 37.499,20.144 2.442,1.311 4.754,5.428 0.266,5.428 h -84.594 c -4.484,0 -2.175,-4.117 0.267,-5.428" /></g></g></g></g></svg>