<?xml version="1.0" encoding="UTF-8" standalone="no"?>
<svg
   xmlns:dc="http://purl.org/dc/elements/1.1/"
   xmlns:cc="http://creativecommons.org/ns#"
   xmlns:rdf="http://www.w3.org/1999/02/22-rdf-syntax-ns#"
   xmlns:svg="http://www.w3.org/2000/svg"
   xmlns="http://www.w3.org/2000/svg"
   viewBox="0 0 106.66693 106.66667"
   height="106.66667"
   width="106.66693"
   xml:space="preserve"
   id="svg2"
   version="1.1"><metadata
     id="metadata8"><rdf:RDF><cc:Work
         rdf:about=""><dc:format>image/svg+xml</dc:format><dc:type
           rdf:resource="http://purl.org/dc/dcmitype/StillImage" /></cc:Work></rdf:RDF></metadata><defs
     id="defs6"><clipPath
       id="clipPath18"
       clipPathUnits="userSpaceOnUse"><path
         id="path16"
         d="M 0,80 H 80 V 0 H 0 Z" /></clipPath></defs><g
     transform="matrix(1.3333333,0,0,-1.3333333,0,106.66667)"
     id="g10"><g
       id="g12"><g
         clip-path="url(#clipPath18)"
         id="g14"><g
           transform="translate(46.1423,33.8579)"
           id="g20"><path
             id="path22"
             style="fill:#f0d8d9;fill-opacity:1;fill-rule:nonzero;stroke:none"
             d="m 0,0 c -7.917,-7.917 -17.085,-15.485 -20.708,-11.861 -5.189,5.189 -8.387,9.707 -19.825,0.515 -11.438,-9.196 -2.654,-15.322 2.373,-20.35 5.8,-5.8 27.421,-0.305 48.792,21.063 C 32,10.739 37.498,32.359 31.694,38.161 26.667,43.188 20.54,51.97 11.349,40.532 2.154,29.098 6.671,25.897 11.861,20.708 15.484,17.085 7.917,7.918 0,0" /></g></g></g></g></svg>